<svg xmlns="http://www.w3.org/2000/svg" viewBox="0 0 125.93 119.67"><defs><style>.cls-1{fill:#ffd5c2;}.cls-2{fill:#ffb8a1;}.cls-3{fill:#ffa69d;}.cls-4{fill:#f9bda9;}.cls-5{fill:#e39952;}.cls-6{fill:#c78547;}.cls-7{fill:#8b5e32;}.cls-8{fill:#bc7e43;}.cls-9{fill:#fefefe;}.cls-10{fill:#e3948b;}</style></defs><g id="Layer_2" data-name="Layer 2"><g id="OBJECTS"><path class="cls-1" d="M68.36,19.31A77.3,77.3,0,0,0,54.8,20.58c-2.42.43-5,1-7.57,1.7-1,.27-2.17.6-3.36,1-.94.31-1.91.67-2.88,1.07A53.7,53.7,0,0,0,29.29,31a49.87,49.87,0,0,0-10.1,9.87,33,33,0,0,0-5.25,9.87,25.33,25.33,0,0,0-1.09,5.37A23.62,23.62,0,0,0,13,61.65a99.06,99.06,0,0,0,1.2,17,119.11,119.11,0,0,0,4,17.38,32.32,32.32,0,0,0,3,6.91,29.59,29.59,0,0,0,4.28,5.59,36.29,36.29,0,0,0,5.52,4.58c.94.65,2,1.29,3.15,2a33.38,33.38,0,0,0,4,2,32.89,32.89,0,0,0,4.8,1.48c.73.16,1.52.31,2.42.44.72.1,1.43.17,2.15.24l.57.06h.16a38.91,38.91,0,0,0,4.67.4l1.47,0c1.1,0,2.2,0,3.3-.07,1.58-.06,3.15-.14,4.72-.23s3.25-.17,4.88-.23c1,0,2,0,3,0l1.68,0c1.46,0,2.93-.11,4.37-.24a51,51,0,0,0,8.65-1.48,41.05,41.05,0,0,0,8.23-3.18,27.89,27.89,0,0,0,6.59-4.63c3.13-3,5.58-7,7.7-12.55a51.85,51.85,0,0,0,2.41-8A63.76,63.76,0,0,0,111,80c.21-3.14.22-6.26.21-9.16q0-2.79-.06-5.58c0-1.2,0-2.39-.05-3.59,0-2.69,0-4.87.06-6.87a.45.45,0,0,0-.15-.34c0-.39.09-.79.12-1.19.05-.62.07-1.29.07-2.06a29.62,29.62,0,0,0-.31-3.88,25.72,25.72,0,0,0-6.35-13.69,32.37,32.37,0,0,0-2.87-2.81c-.94-.83-2-1.63-3.08-2.47A44.25,44.25,0,0,0,85,21.63a56.72,56.72,0,0,0-14.89-2.3l-1.76,0Z"/><path class="cls-2" d="M62.39,81.61a5,5,0,0,0-2.78,1,5,5,0,0,0-1.79,2.59.59.59,0,0,0,.41.73.6.6,0,0,0,.74-.41c0-.14.09-.26.14-.39a3.47,3.47,0,0,1,.42-.72,3.84,3.84,0,0,1,.57-.57,4.14,4.14,0,0,1,.68-.39,4.26,4.26,0,0,1,.93-.25,3.93,3.93,0,0,1,2,.29,4.9,4.9,0,0,1,.91.53,5.77,5.77,0,0,1,.9.88,5.62,5.62,0,0,1,.43.69.76.76,0,0,0,.85.35A.75.75,0,0,0,67.3,85a4.82,4.82,0,0,0-.73-1.45,5,5,0,0,0-.57-.64,4.1,4.1,0,0,0-.68-.5,5,5,0,0,0-1.42-.61,5.7,5.7,0,0,0-1.37-.16Zm1.16,1.77.07,0-.07,0Z"/><path class="cls-3" d="M32.92,87.52a9,9,0,0,0-1.75.16,5.9,5.9,0,0,0-1.75.65A4.59,4.59,0,0,0,28,89.63a5.1,5.1,0,0,0-.91,3.11,7.78,7.78,0,0,0,0,2.59,8.57,8.57,0,0,0,1,2.83,9.26,9.26,0,0,0,1.89,2.4,8.78,8.78,0,0,0,5.79,2.36h.13a7.06,7.06,0,0,0,2.69-.54,6.91,6.91,0,0,0,1.18-.63,6.73,6.73,0,0,0,1.09-.92,7.16,7.16,0,0,0,2-5,8.79,8.79,0,0,0-.14-1.4,7.18,7.18,0,0,0-.41-1.36,7.78,7.78,0,0,0-.7-1.32,7.39,7.39,0,0,0-1.07-1.31,8.24,8.24,0,0,0-.91-.77,10.86,10.86,0,0,0-1-.65,12.5,12.5,0,0,0-2.36-1,10.73,10.73,0,0,0-3.27-.52Z"/><path class="cls-3" d="M93.09,86.8a8.93,8.93,0,0,1,1.74.17,6.06,6.06,0,0,1,1.75.64A4.75,4.75,0,0,1,98,88.92,5.1,5.1,0,0,1,99,92a8.35,8.35,0,0,1,0,2.59,8.83,8.83,0,0,1-1,2.83,9.05,9.05,0,0,1-1.89,2.4,8.86,8.86,0,0,1-5.78,2.36h-.14a7,7,0,0,1-2.69-.53,6.91,6.91,0,0,1-1.18-.63,6.73,6.73,0,0,1-1.09-.92,7.16,7.16,0,0,1-2-5,7.79,7.79,0,0,1,.15-1.4,6.52,6.52,0,0,1,.41-1.36,7.55,7.55,0,0,1,.69-1.33,8.18,8.18,0,0,1,1.07-1.31,7.43,7.43,0,0,1,.92-.76,8.25,8.25,0,0,1,1-.65,12.4,12.4,0,0,1,2.35-1,10.81,10.81,0,0,1,3.28-.53Z"/><path class="cls-1" d="M8.53,70.54a5.65,5.65,0,0,0-.71,0,6.64,6.64,0,0,0-2.22.68,9.06,9.06,0,0,0-3.41,3.24A13.15,13.15,0,0,0,.27,79.28a13.48,13.48,0,0,0,0,5.48,11.14,11.14,0,0,0,.91,2.63,10.59,10.59,0,0,0,1.6,2.36,9.64,9.64,0,0,0,7.36,3.13,11,11,0,0,0,5.54-1.47,8.51,8.51,0,0,0,1.31-1,8.75,8.75,0,0,0,1.14-1.28,1.22,1.22,0,0,0,.16-.6,1.21,1.21,0,0,0-.35-.84,1.11,1.11,0,0,0-.66-.32c-.18-2-.54-4-.89-6-.24-1.39-.49-2.83-.69-4.24-.11-.9-.19-1.75-.24-2.59a.53.53,0,0,0-.52-.51.2.2,0,0,1-.14-.09,9.93,9.93,0,0,0-4.73-3.24,5.92,5.92,0,0,0-1.56-.21Z"/><path class="cls-4" d="M7.64,76.78a5.53,5.53,0,0,0-2.77,1.83,6.66,6.66,0,0,0-.57.82,6.38,6.38,0,0,0-.43,1,5,5,0,0,0-.28,2,1,1,0,0,0,.71.94,1,1,0,0,0,.76-.09,1,1,0,0,0,.45-.59c.19-.55.37-1.1.59-1.64a8.26,8.26,0,0,1,.83-1.48,5.67,5.67,0,0,1,.73-.74,5.54,5.54,0,0,1,1-.56,5,5,0,0,1,1.13-.32A5.26,5.26,0,0,1,11,78a6.08,6.08,0,0,1,1.33.36,6.92,6.92,0,0,1,1.31.77.41.41,0,0,0,.56-.14.42.42,0,0,0-.15-.56,8.44,8.44,0,0,0-4.87-1.8,5.81,5.81,0,0,0-1.49.2Zm1.09,1.43-.08,0,.08,0Z"/><path class="cls-4" d="M9.67,77.62a11.67,11.67,0,0,0-1.59,3.27,5.7,5.7,0,0,0,0,3.65.92.92,0,0,0,.39.5.82.82,0,0,0,.65.09.85.85,0,0,0,.5-.39.88.88,0,0,0,.09-.65c-.07-.34-.14-.68-.19-1a8.18,8.18,0,0,1,0-1.85A7.79,7.79,0,0,1,10,79.65a8.21,8.21,0,0,1,.79-1.38.65.65,0,0,0-.23-.88.63.63,0,0,0-.32-.08.7.7,0,0,0-.56.31Zm-.11,3.47v0Z"/><path class="cls-1" d="M117.4,67.5a5.53,5.53,0,0,1,.71,0,7,7,0,0,1,2.23.68,9.37,9.37,0,0,1,3.41,3.24,13.46,13.46,0,0,1,1.91,4.77,13.71,13.71,0,0,1,0,5.49,11.59,11.59,0,0,1-.92,2.62,10.26,10.26,0,0,1-1.6,2.36,9.64,9.64,0,0,1-7.36,3.13,11,11,0,0,1-5.54-1.47,8.51,8.51,0,0,1-1.31-1,8.75,8.75,0,0,1-1.14-1.28,1.34,1.34,0,0,1-.16-.6,1.18,1.18,0,0,1,.35-.83,1.13,1.13,0,0,1,.66-.33c.19-2,.54-4,.89-6,.24-1.39.5-2.82.69-4.24.11-.9.2-1.75.24-2.58A.53.53,0,0,1,111,71a.22.22,0,0,0,.15-.08,9.86,9.86,0,0,1,4.72-3.25,6.36,6.36,0,0,1,1.56-.2Z"/><path class="cls-4" d="M118.3,73.73a5.57,5.57,0,0,1,2.76,1.83,6.66,6.66,0,0,1,.57.82,5.87,5.87,0,0,1,.43,1,5.19,5.19,0,0,1,.29,2,1,1,0,0,1-.72.95,1,1,0,0,1-.76-.1,1,1,0,0,1-.45-.59c-.19-.55-.37-1.1-.59-1.64a7.8,7.8,0,0,0-.82-1.47,5.75,5.75,0,0,0-.74-.74,5.6,5.6,0,0,0-1-.57,4.87,4.87,0,0,0-1.13-.32,5.26,5.26,0,0,0-1.19,0,5.85,5.85,0,0,0-1.32.36,7.58,7.58,0,0,0-1.32.77.4.4,0,0,1-.56-.14.42.42,0,0,1,.15-.56,8.46,8.46,0,0,1,4.87-1.79,5.93,5.93,0,0,1,1.5.19Zm-1.1,1.43.08,0-.08,0Z"/><path class="cls-4" d="M116.26,74.58a11.22,11.22,0,0,1,1.59,3.26,5.63,5.63,0,0,1,0,3.65.87.87,0,0,1-.38.5.84.84,0,0,1-1.16-.3.91.91,0,0,1-.09-.65c.07-.34.14-.67.19-1a8.9,8.9,0,0,0,0-1.86,8.54,8.54,0,0,0-.45-1.57,9.39,9.39,0,0,0-.78-1.38.63.63,0,0,1,.23-.87.59.59,0,0,1,.31-.09.68.68,0,0,1,.56.32Zm.11,3.46v0Z"/><path class="cls-5" d="M62,0h-.29a46.64,46.64,0,0,0-7.18.63,56.31,56.31,0,0,0-7.11,1.63,66,66,0,0,0-7.14,2.61,64.11,64.11,0,0,0-6.64,3.31,59.12,59.12,0,0,0-11.62,8.67A48.22,48.22,0,0,0,17.44,22a42.17,42.17,0,0,0-4,6.21,52,52,0,0,0-5,15.13A83.09,83.09,0,0,0,7.28,59.44c0,3.39.29,7.09.75,11.32v.15H8a.5.5,0,0,0,.06.39.44.44,0,0,0,.28.21,17.65,17.65,0,0,1,3.33,1l.94.42.59.26a.7.7,0,0,0,.3.08l.15,0A.56.56,0,0,0,14,73a.72.72,0,0,0,.08-.22.64.64,0,0,0,.18-.3l0-.14c.09-.46.17-.92.28-1.37s.26-1,.4-1.54a29.4,29.4,0,0,1,1-3h0v0h0l0-.06h0c.59-1.37,1.28-2.71,2-4,.52-1,1-2,1.53-3.05a1.3,1.3,0,0,0,.13.3.69.69,0,0,0,.4.3l.17,0a.6.6,0,0,0,.47-.19,9.44,9.44,0,0,0,.81-1.24c.27-.48.53-1,.78-1.47.33-.67.65-1.35,1-2l.42-.88A35,35,0,0,1,26.57,49a1.88,1.88,0,0,0,.2.74,1.24,1.24,0,0,0,.51.55,1.07,1.07,0,0,0,.53.13,1.19,1.19,0,0,0,.37-.06,2.11,2.11,0,0,0,.73-.42,7.14,7.14,0,0,0,.62-.6,14.79,14.79,0,0,0,1-1.25l.26-.33.42-.52.42-.53c.47-.58.92-1.18,1.37-1.78l1-1.32c.55-.75,1.1-1.5,1.66-2.23.36-.47.71-.9,1.06-1.32a5.29,5.29,0,0,0-.16,1,2.91,2.91,0,0,0,.83,2.32,2.32,2.32,0,0,0,.53.35,2,2,0,0,0,.55.21,1.73,1.73,0,0,0,.32,0,2.77,2.77,0,0,0,.84-.15,8.33,8.33,0,0,0,1.2-.53c.47-.24.91-.51,1.35-.79l.79-.52c.41-.28.83-.55,1.26-.8l.78-.44.86-.48L47,39.54l.74-.43c1.18-.69,2.45-1.41,3.79-2.07.43-.21.86-.4,1.3-.59A17.83,17.83,0,0,1,57,35.21a9.93,9.93,0,0,0-.72,2,5.71,5.71,0,0,0-.14,1.08,2.2,2.2,0,0,0,.12.83,1.66,1.66,0,0,0,1.19,1.11,2.24,2.24,0,0,0,.46.05,3.41,3.41,0,0,0,1.11-.22,8.64,8.64,0,0,0,1.71-.9c.68-.45,1.32-1,1.8-1.36.69-.58,1.3-1.14,1.88-1.71-.12.3-.22.62-.31.93a31.42,31.42,0,0,0-.89,3.69c-.1.57-.17,1.14-.22,1.67a8.31,8.31,0,0,0,.07,1.78,4.32,4.32,0,0,0,.39,1.34,2.59,2.59,0,0,0,.82,1,2.14,2.14,0,0,0,1.06.36,1.62,1.62,0,0,0,.31,0,3.86,3.86,0,0,0,.89-.11,6.25,6.25,0,0,0,1.22-.42,14.34,14.34,0,0,0,1.36-.68c.83-.47,1.65-1,2.44-1.51l.34-.22c1.09-.71,2.18-1.51,3.25-2.37a36.35,36.35,0,0,0,5.4-5.34A27.1,27.1,0,0,0,84,30.8q.42.61.84,1.26c.4.63.79,1.26,1.18,1.9l.07.11c.82,1.34,1.68,2.72,2.65,4a17.3,17.3,0,0,0,1.51,1.76A6.6,6.6,0,0,0,91.82,41a2.93,2.93,0,0,0,1.41.41h.21a2.27,2.27,0,0,0,.85-.26,2.48,2.48,0,0,0,.62-.5,53.48,53.48,0,0,1,5,5.62,53.91,53.91,0,0,1,4.34,6.66,79.59,79.59,0,0,1,3.62,7.53c.31.76.61,1.52.89,2.29s.51,1.59.75,2.5.36,1.57.54,2.55c.08.41.15.82.21,1.22l0,.21c.06.4.12.8.22,1.2a.62.62,0,0,0,.59.46.46.46,0,0,0,.34.14.37.37,0,0,0,.31-.13,9.68,9.68,0,0,1,1.54-1.53c.44-.33.92-.65,1.41-1l.25-.17a.57.57,0,0,0,.5-.38.6.6,0,0,0,0-.64v-.74c0-.39,0-.78,0-1.18,0-.56,0-1.13,0-1.7v-.85c0-1.1,0-2.2.05-3.3l0-.83c0-2.23.07-4.88.06-7.58a79,79,0,0,0-1.43-15.65,40.08,40.08,0,0,0-2.22-7.24,30.94,30.94,0,0,0-1.68-3.41,25.35,25.35,0,0,0-1.92-2.89,45.58,45.58,0,0,0-9.73-9.55,25.57,25.57,0,0,0-7-3.67,14.1,14.1,0,0,0-4.32-.71,12.09,12.09,0,0,0-2,.17,9.75,9.75,0,0,0-1.81-2.2A13.65,13.65,0,0,0,81,4.06a24.32,24.32,0,0,0-3.16-1.38c-.92-.33-1.91-.63-3.21-1C72.49,1.16,70.37.79,68.75.53A42.52,42.52,0,0,0,62,0Z"/><path class="cls-6" d="M66.28,5.63a17.77,17.77,0,0,0-5.37,1.68,1,1,0,0,0-.34,1.3.93.93,0,0,0,.56.43A1,1,0,0,0,61.87,9l.47-.22a19,19,0,0,1,4.57-1.24,30.45,30.45,0,0,1,7.57.11,26.45,26.45,0,0,1,6.37,1.66l-.13,0a13.07,13.07,0,0,1,1.59.79.5.5,0,1,0,.5-.86,32,32,0,0,0-5-2.42,23.41,23.41,0,0,0-5.71-1.3,18.57,18.57,0,0,0-2-.1,25.43,25.43,0,0,0-3.81.31Z"/><path class="cls-6" d="M77.93,11a11.43,11.43,0,0,0-2,.57,25.92,25.92,0,0,0-3.93,2,.77.77,0,1,0,.77,1.33,31.83,31.83,0,0,1,3.43-1.78h0a14,14,0,0,1,2.93-.82,7.23,7.23,0,0,1,.93,0,.69.69,0,0,0,.68-.68.7.7,0,0,0-.68-.68h-.61a10.84,10.84,0,0,0-1.51.1Z"/><path class="cls-6" d="M79.85,15l-1,1.42c-.38.52-.73,1.06-1.09,1.6A.71.71,0,0,0,78,19a.73.73,0,0,0,1-.25c.32-.49.64-1,1-1.46s.68-1.09,1-1.63a.63.63,0,0,0-.23-.87.51.51,0,0,0-.31-.09.68.68,0,0,0-.56.32Z"/><path class="cls-6" d="M86.1,16.37a.47.47,0,0,0,0,.64l.43.51a9.87,9.87,0,0,1,.8,1.32c.26.49.5,1,.72,1.51a17.67,17.67,0,0,1,.79,2.36.74.74,0,1,0,1.42-.39,12.46,12.46,0,0,0-1.34-3.25,9,9,0,0,0-1-1.32c-.39-.47-.79-.93-1.21-1.38a.4.4,0,0,0-.31-.13.46.46,0,0,0-.33.13Zm.36,1.06.07.09-.07-.09Z"/><path class="cls-6" d="M88.11,12.88a.58.58,0,0,0,.06.43.56.56,0,0,0,.34.26l.18.07A10.63,10.63,0,0,1,91,15.05l-.14-.12a19.66,19.66,0,0,1,3.38,3.38c.41.54.79,1.1,1.16,1.67a.87.87,0,0,0,1.51-.88A21.74,21.74,0,0,0,93.41,15a11.14,11.14,0,0,0-3.33-2c-.42-.18-.85-.36-1.28-.52l-.15,0a.61.61,0,0,0-.54.42Zm.61.77a.2.2,0,0,0,.08,0,.2.2,0,0,1-.08,0Zm5.4,4.56.08.09-.08-.09Zm.09.12.05.05-.05-.05Z"/><path class="cls-6" d="M103,25.55a.27.27,0,0,0,0,.36c.3.33.57.68.85,1h0l0,0v0a31.08,31.08,0,0,1,3.78,6.66v0a56.29,56.29,0,0,1,2.6,8,73,73,0,0,1,1.57,8.16h0q.15,1.14.27,2.28a.58.58,0,0,0,.14.32.46.46,0,0,0,.32.13A.44.44,0,0,0,113,52q-.36-3.51-1-7a52.66,52.66,0,0,0-1.78-7.1,41,41,0,0,0-2.87-6.63,33.21,33.21,0,0,0-4-5.78.23.23,0,0,0-.17-.07.32.32,0,0,0-.19.07Zm8.79,24.09v0a.43.43,0,0,0,0,0ZM103.83,27h0l0,0,0,0Z"/><path class="cls-6" d="M107.86,46.14a.34.34,0,0,0-.12.47c.23.42.46.84.65,1.27a21.94,21.94,0,0,1,.89,2.82c.26,1,.46,2,.68,3,.42,2,.8,3.92,1.2,5.88a.77.77,0,0,0,.94.53.75.75,0,0,0,.45-.35.74.74,0,0,0,.07-.58c-.47-2.23-.85-4.49-1.5-6.68a24.54,24.54,0,0,0-1.18-3.13c-.23-.51-.48-1-.74-1.49s-.56-1.07-.86-1.6a.37.37,0,0,0-.31-.17.41.41,0,0,0-.17,0Z"/><path class="cls-6" d="M111.21,63a.5.5,0,0,0-.33.6c.18.78.36,1.56.53,2.35a.47.47,0,0,0,.91-.25c-.16-.79-.33-1.57-.51-2.36a.48.48,0,0,0-.47-.35Z"/><path class="cls-6" d="M18.56,52.47q-1.06,1.77-2,3.63C16,57.36,15.42,58.65,14.92,60s-.9,2.59-1.28,3.9-.75,2.78-1.08,4.18a.49.49,0,0,0,.33.59.5.5,0,0,0,.61-.34c.24-1,.5-2,.76-3s.55-2,.85-2.93.59-1.93.91-2.88.7-2,1.1-2.92h0a31,31,0,0,1,1.94-3.86.29.29,0,0,0-.11-.4.33.33,0,0,0-.14,0,.31.31,0,0,0-.25.15Z"/><path class="cls-6" d="M13.93,54.85a.27.27,0,0,0-.11.15c-.36,1-.69,1.91-1,2.88S12.29,60,12.05,61a.27.27,0,0,0,.19.33.26.26,0,0,0,.33-.19c.23-1,.47-2,.74-2.95s.61-2.06,1-3.08a.26.26,0,0,0-.18-.3h-.06a.28.28,0,0,0-.13,0Z"/><path class="cls-6" d="M11.74,47.62a67.22,67.22,0,0,0-2,7.08,36,36,0,0,0-.57,3.7c-.15,1.26-.27,2.52-.38,3.78a.61.61,0,0,0,.19.44.6.6,0,0,0,.88,0,.66.66,0,0,0,.19-.44c.12-1.45.26-2.89.43-4.34.08-.75.18-1.49.26-2.24s.16-1.43.26-2.14v0c.12-.94.27-1.88.46-2.81a24.18,24.18,0,0,1,.79-2.92.24.24,0,0,0-.17-.31H12a.27.27,0,0,0-.24.18Z"/><path class="cls-6" d="M42.3,8.29c-1.87.8-3.74,1.63-5.55,2.55A42.74,42.74,0,0,0,31.41,14a35.31,35.31,0,0,0-8.77,8.73.52.52,0,0,0-.06.44.56.56,0,0,0,.26.34.56.56,0,0,0,.44.06.6.6,0,0,0,.34-.27q.39-.54.81-1.08a34.74,34.74,0,0,1,3.29-3.67,42.3,42.3,0,0,1,3.72-3.22l-.12.09A52.26,52.26,0,0,1,42.55,8.72a.26.26,0,0,0,.09-.34.23.23,0,0,0-.21-.12.31.31,0,0,0-.13,0Z"/><path class="cls-6" d="M19,31.4c-.53.53-1,1.07-1.53,1.65a16.36,16.36,0,0,0-1.42,1.89,32,32,0,0,0-2.27,4.3.52.52,0,0,0-.05.37.53.53,0,0,0,.22.29.48.48,0,0,0,.37,0,.46.46,0,0,0,.29-.22c.55-1.21,1.14-2.41,1.79-3.58.31-.55.64-1.1,1-1.64a20.6,20.6,0,0,1,1.17-1.71l-.05.06c.29-.36.6-.71.92-1a.3.3,0,0,0,0-.41.28.28,0,0,0-.2-.09.29.29,0,0,0-.21.09Z"/><path class="cls-6" d="M22.77,33.42c-.4.39-.79.8-1.18,1.21s-.77.81-1.13,1.24a19.51,19.51,0,0,0-1.93,2.76,35.71,35.71,0,0,0-2.8,6.17.64.64,0,0,0,.44.78.68.68,0,0,0,.49-.06.6.6,0,0,0,.29-.39c.26-.66.52-1.33.8-2a40.48,40.48,0,0,1,2-4c.36-.64.75-1.26,1.13-1.89s.85-1.3,1.32-1.92A12.33,12.33,0,0,1,23.35,34a.41.41,0,0,0-.58-.57Z"/><path class="cls-6" d="M21.79,41.78a.61.61,0,0,0-.31.24A42.53,42.53,0,0,0,20,46.15a.52.52,0,0,0,.36.63.53.53,0,0,0,.64-.36,37.31,37.31,0,0,1,1.34-3.66l-.06.13.15-.34a.56.56,0,0,0,.05-.4.49.49,0,0,0-.23-.31.54.54,0,0,0-.27-.07Z"/><path class="cls-6" d="M82,25.23a16.68,16.68,0,0,1-.7,2.1,24.45,24.45,0,0,1-1.43,2.79,27.79,27.79,0,0,1-2,2.78l0,0a44.75,44.75,0,0,1-5.92,6.31.86.86,0,0,0,0,1.19.86.86,0,0,0,1.19,0,30.61,30.61,0,0,0,6-6.73c.39-.62.74-1.27,1.08-1.92s.71-1.41,1-2.13a28,28,0,0,0,1.41-4.17.37.37,0,0,0-.26-.45h-.09a.35.35,0,0,0-.35.27Zm-.72,2.14v0Z"/><path class="cls-6" d="M71.41,33.3c-.35.62-.7,1.23-1.07,1.83a.54.54,0,0,0,.93.54c.37-.6.73-1.2,1.08-1.81a.55.55,0,0,0-.2-.75.5.5,0,0,0-.27-.07.54.54,0,0,0-.47.26Z"/><path class="cls-6" d="M84.47,22.54A31.07,31.07,0,0,0,85.11,26a27.22,27.22,0,0,0,1.1,3.53,23.07,23.07,0,0,0,3.73,6.23.76.76,0,0,0,.54.22.77.77,0,0,0,.54-.22.79.79,0,0,0,.22-.54.84.84,0,0,0-.22-.55l-.2-.24,0,0a29.9,29.9,0,0,1-2.4-3.69,41.79,41.79,0,0,1-2-4.07h0a17.17,17.17,0,0,1-1.12-4v0h0s0-.07,0-.1a.41.41,0,0,0-.4-.4.39.39,0,0,0-.4.4Zm.81.11v0a.11.11,0,0,0,0-.05Z"/><path class="cls-6" d="M66.09,28.08a13.3,13.3,0,0,1-1,1.63l.06-.08c-.64.82-1.34,1.58-2,2.35s-1.42,1.55-2.13,2.33a.54.54,0,0,0,0,.75.53.53,0,0,0,.75,0c.94-1,1.92-2,2.79-3.14a23.11,23.11,0,0,0,2.23-3.48.35.35,0,0,0-.13-.48.26.26,0,0,0-.17-.05.34.34,0,0,0-.31.17Z"/><path class="cls-6" d="M53.08,29.51c-.6.43-1.22.82-1.85,1.19s-1.24.68-1.88,1c-1.2.61-2.42,1.2-3.61,1.87a16.58,16.58,0,0,0-3.3,2.4A16.35,16.35,0,0,0,41,37.56a17.46,17.46,0,0,0-1.39,2.11.89.89,0,1,0,1.53.89,19.15,19.15,0,0,1,1.23-1.85,24,24,0,0,1,4-3.78c1.09-.82,2.22-1.58,3.34-2.35S52.17,30.9,53.38,30a.31.31,0,0,0,.1-.41.34.34,0,0,0-.26-.15.24.24,0,0,0-.14.05Z"/><path class="cls-6" d="M98.27,34.71a.4.4,0,0,0-.29.49,56.57,56.57,0,0,0,2.51,5.62c.48.93,1,1.84,1.48,2.76s1,1.92,1.52,2.9a.53.53,0,0,0,.73.2.56.56,0,0,0,.2-.75c-.84-1.68-1.77-3.33-2.67-5a57.87,57.87,0,0,1-2.68-5.19L98.76,35a.44.44,0,0,0-.18-.24.41.41,0,0,0-.2-.06l-.11,0Zm.81,1.08s0,0,0,0l0,0Z"/><path class="cls-6" d="M34,35.72c-1,1.32-2.13,2.58-3.12,3.94a21.15,21.15,0,0,0-2.42,4.43.55.55,0,0,0,0,.31.61.61,0,0,0,.27.36.59.59,0,0,0,.45.05.58.58,0,0,0,.36-.27,21.83,21.83,0,0,1,1-2.07c.35-.66.75-1.3,1.15-1.94a45,45,0,0,1,2.61-3.81l0,0,.33-.42A.5.5,0,0,0,34.7,36a.42.42,0,0,0-.12-.3.45.45,0,0,0-.32-.12.35.35,0,0,0-.29.12Z"/><path class="cls-7" d="M42.19,65.74a.88.88,0,0,0-.56.44,24.43,24.43,0,0,0-4.87,1.14c-1.54.49-3.09,1-4.59,1.57l-.48.18a.8.8,0,0,0-.48.37.73.73,0,0,0-.11.48c-.06.19-.12.37-.17.56h0a8.94,8.94,0,0,0-.33,2.59,8.12,8.12,0,0,0,.67,3.1,8,8,0,0,0,1.77,2.56,8.28,8.28,0,0,0,2.81,1.74,8,8,0,0,0,1.6.39A8.54,8.54,0,0,0,38.9,81h.42A10.4,10.4,0,0,0,41,80.71a9.35,9.35,0,0,0,1.68-.64,7.57,7.57,0,0,0,1.4-.92A7.44,7.44,0,0,0,45.26,78a7.32,7.32,0,0,0,.91-1.43,7.44,7.44,0,0,0,.59-1.78,8.85,8.85,0,0,0,.05-2.6,11.09,11.09,0,0,0-.51-2.53,10.38,10.38,0,0,0-.5-1.18A6.89,6.89,0,0,0,45,67.29a5.46,5.46,0,0,0-.72-.73,4.85,4.85,0,0,0-1.55-.8,1.08,1.08,0,0,0-.31-.05.8.8,0,0,0-.25,0Z"/><path class="cls-8" d="M49.86,70.82a10.91,10.91,0,0,0-3.43-5.11,7.43,7.43,0,0,0-1.33-.84.62.62,0,0,0-.29-.07.54.54,0,0,0-.28.08h-.05l-.15,0c-.31.07-.62.13-.93.21l-1.09.3-2,.6c-.78.23-1.56.43-2.35.63-1.71.46-3.43.93-5.1,1.53A19.58,19.58,0,0,0,28,70.6a9.4,9.4,0,0,0-1.85,1.77,6.47,6.47,0,0,0-1.07,2.13.53.53,0,0,0,0,.33,5.77,5.77,0,0,0-.09.6,5.61,5.61,0,0,0,0,.82,6.44,6.44,0,0,0,1,2.85,11.15,11.15,0,0,0,2.17,2.43A15.74,15.74,0,0,0,31,83.37a12.27,12.27,0,0,0,2.66,1.08,21.92,21.92,0,0,0,2.87.53,19.39,19.39,0,0,0,6.13-.15,13.16,13.16,0,0,0,2.87-.92,9.06,9.06,0,0,0,2.42-1.59A7.85,7.85,0,0,0,49.69,80a10,10,0,0,0,.83-2.87A13.73,13.73,0,0,0,49.86,70.82Zm-.24,5.89s0-.09,0-.12,0,.07,0,.11l0-.11a9.53,9.53,0,0,1-.57,2.16,8.46,8.46,0,0,1-.94,1.63,6.25,6.25,0,0,1-1.11,1.13,2.43,2.43,0,0,1-.25.2l.08,0a9.86,9.86,0,0,1-2.06,1.19,13.22,13.22,0,0,1-3.18.82,20.3,20.3,0,0,1-2.39.15,22.93,22.93,0,0,1-2.83-.19c-.68-.1-1.35-.22-2-.37a11.31,11.31,0,0,1-1.87-.6,15.88,15.88,0,0,1-3.29-1.93,12.62,12.62,0,0,1-1.88-1.83,7.49,7.49,0,0,1-.92-1.53,5.76,5.76,0,0,1-.35-1.21,5.12,5.12,0,0,1,0-1.17l0,0h0a1.3,1.3,0,0,0,.08-.17l.18-.52a6.45,6.45,0,0,1,.64-1.09A9.25,9.25,0,0,1,28.33,72a11.31,11.31,0,0,1,2.12-1.26l1-.46a51,51,0,0,1,6.06-2c.85-.25,1.71-.49,2.55-.77.68-.23,1.36-.47,2.06-.68l1.26-.38.58-.17,0,0,.14,0c.19-.06.38-.12.57-.16L44.8,66h0a8.68,8.68,0,0,1,1.08.7,9.68,9.68,0,0,1,1.49,1.51,11.4,11.4,0,0,1,1.37,2.38,13,13,0,0,1,.87,3.22A11,11,0,0,1,49.62,76.71Z"/><path class="cls-9" d="M44.83,66h0a.56.56,0,0,1-.17.07l-.56.17-.15,0a6.37,6.37,0,0,1,1.08,1,6.54,6.54,0,0,1,.78,1.16,11.41,11.41,0,0,1,.5,1.17,11.63,11.63,0,0,1,.52,2.53,9.56,9.56,0,0,1-.06,2.6,7.44,7.44,0,0,1-.59,1.78A7.32,7.32,0,0,1,45.26,78a7.44,7.44,0,0,1-1.19,1.19,7,7,0,0,1-1.4.91A8.05,8.05,0,0,1,41,80.7a9.44,9.44,0,0,1-1.67.26H38.9a9.84,9.84,0,0,1-1.43-.11,8.19,8.19,0,0,1-4.41-2.14,8,8,0,0,1-1.77-2.56,8.37,8.37,0,0,1-.68-3.1A9,9,0,0,1,31,70.47,11.85,11.85,0,0,0,28.34,72a8.31,8.31,0,0,0-1.27,1.24,6.45,6.45,0,0,0-.64,1.09,4.72,4.72,0,0,0-.18.53.56.56,0,0,1-.11.2,5.12,5.12,0,0,0,0,1.17,5.76,5.76,0,0,0,.35,1.21,7.76,7.76,0,0,0,.92,1.53,12.62,12.62,0,0,0,1.88,1.83,15.62,15.62,0,0,0,3.29,1.93,11.31,11.31,0,0,0,1.87.6c.64.15,1.31.27,2,.37a23.17,23.17,0,0,0,2.84.18,18.4,18.4,0,0,0,2.39-.14,13.35,13.35,0,0,0,3.18-.82,9.86,9.86,0,0,0,2.06-1.19l-.15.06a6.58,6.58,0,0,0,1.43-1.36,7.3,7.3,0,0,0,.94-1.63,8.9,8.9,0,0,0,.56-2.16l0,.12a11,11,0,0,0,0-2.93,13,13,0,0,0-.87-3.22,11.4,11.4,0,0,0-1.37-2.38,9.26,9.26,0,0,0-1.49-1.51,8.68,8.68,0,0,0-1.08-.7Z"/><path class="cls-5" d="M44.65,50.34a.4.4,0,0,0-.24.07.45.45,0,0,0-.2.23.62.62,0,0,0-.4.18,6.87,6.87,0,0,0-.74,1l-.46.78-.26.44a24.41,24.41,0,0,1-1.49,2.25l.09-.1a12.81,12.81,0,0,1-2,2,.3.3,0,0,0-.12.24.44.44,0,0,0,.12.35.4.4,0,0,0,.17.1.34.34,0,0,0,.1.28.43.43,0,0,0,.26.11,5.51,5.51,0,0,0,.81,0,7.73,7.73,0,0,0,1.62-.18,9.15,9.15,0,0,0,2.35-.92,12.47,12.47,0,0,0,2.13-1.48,10.21,10.21,0,0,0,.93-.87,5.49,5.49,0,0,0,.78-.94.66.66,0,0,0,.09-.4.7.7,0,0,0,.19-.32.75.75,0,0,0-.07-.54,3.65,3.65,0,0,0-.62-.85,4.55,4.55,0,0,0-.89-.75,4.75,4.75,0,0,0-.88-.47,4.2,4.2,0,0,0-1.11-.31l-.15,0Z"/><path class="cls-4" d="M48.79,46.68a.85.85,0,0,0,0,1.18q.38.38.72.78a5.5,5.5,0,0,1,.54.9,4.21,4.21,0,0,1,.16.61,5,5,0,0,1,0,.67.65.65,0,0,0,.65.66.66.66,0,0,0,.66-.66,5.65,5.65,0,0,0-.27-2.31,5.11,5.11,0,0,0-.5-1,4.52,4.52,0,0,0-.43-.53,4.42,4.42,0,0,0-.53-.44.88.88,0,0,0-.42-.11.87.87,0,0,0-.59.24Zm.75,2,.08.1-.08-.1Z"/><path class="cls-7" d="M81.4,65.74a.88.88,0,0,1,.56.44,24.68,24.68,0,0,1,4.88,1.14c1.54.49,3.08,1,4.58,1.57l.49.18a.78.78,0,0,1,.47.37.73.73,0,0,1,.11.48l.18.56h0A9,9,0,0,1,93,73.06a8.33,8.33,0,0,1-.68,3.1,7.84,7.84,0,0,1-1.77,2.56,7.84,7.84,0,0,1-4.4,2.13A8.72,8.72,0,0,1,84.7,81h-.43a10.28,10.28,0,0,1-1.66-.25,9.47,9.47,0,0,1-1.69-.64,7.57,7.57,0,0,1-1.4-.92A7.44,7.44,0,0,1,78.33,78a7.32,7.32,0,0,1-.91-1.43,7,7,0,0,1-.58-1.78,9.18,9.18,0,0,1-.06-2.6,11.66,11.66,0,0,1,.51-2.53,12.57,12.57,0,0,1,.5-1.18,7.56,7.56,0,0,1,.78-1.15,5.46,5.46,0,0,1,.72-.73,5,5,0,0,1,1.55-.8,1.08,1.08,0,0,1,.31-.05.77.77,0,0,1,.25,0Z"/><path class="cls-8" d="M73.07,77.08A10,10,0,0,0,73.9,80a7.85,7.85,0,0,0,1.75,2.37,9.06,9.06,0,0,0,2.42,1.59,13.16,13.16,0,0,0,2.87.92,19.4,19.4,0,0,0,6.13.15,21.33,21.33,0,0,0,2.87-.53,12.27,12.27,0,0,0,2.66-1.08,15.74,15.74,0,0,0,2.73-1.84A10.9,10.9,0,0,0,97.5,79.1a6.44,6.44,0,0,0,1-2.85,5.61,5.61,0,0,0,0-.82,5.77,5.77,0,0,0-.09-.6.62.62,0,0,0,0-.33,6.69,6.69,0,0,0-1.08-2.13,9.14,9.14,0,0,0-1.85-1.77,19.41,19.41,0,0,0-4.83-2.44c-1.67-.6-3.38-1.07-5.1-1.53-.78-.2-1.57-.4-2.35-.63l-2-.6-1.09-.3c-.31-.08-.62-.14-.93-.21l-.15,0h0a.6.6,0,0,0-.28-.08.66.66,0,0,0-.3.07,7.43,7.43,0,0,0-1.33.84,10.91,10.91,0,0,0-3.43,5.11A13.73,13.73,0,0,0,73.07,77.08Zm.88-3.3a13,13,0,0,1,.87-3.22,11.4,11.4,0,0,1,1.37-2.38,9.68,9.68,0,0,1,1.49-1.51,8.68,8.68,0,0,1,1.08-.7h0l.16.07c.18,0,.37.1.56.16l.14,0,0,0,.58.17,1.27.38c.69.21,1.37.45,2,.68.85.28,1.7.52,2.55.77a51,51,0,0,1,6.06,2l1,.46A11.31,11.31,0,0,1,95.26,72a8.71,8.71,0,0,1,1.26,1.24,5.34,5.34,0,0,1,.64,1.09,4.56,4.56,0,0,1,.18.52.7.7,0,0,0,.09.17h0l0,0a5.12,5.12,0,0,1,0,1.17,5.22,5.22,0,0,1-.35,1.21,7.49,7.49,0,0,1-.92,1.53,12.15,12.15,0,0,1-1.88,1.83A15.62,15.62,0,0,1,91,82.68a11.31,11.31,0,0,1-1.87.6c-.64.15-1.3.27-2,.37a23.22,23.22,0,0,1-2.84.19A20.44,20.44,0,0,1,82,83.69a13.47,13.47,0,0,1-3.18-.82,9.86,9.86,0,0,1-2.06-1.19l.08,0a2.43,2.43,0,0,1-.25-.2,7,7,0,0,1-1.11-1.13,8.46,8.46,0,0,1-.94-1.63,9,9,0,0,1-.56-2.16l0,.11a.52.52,0,0,1,0-.11s0,.08,0,.12A11,11,0,0,1,74,73.78Z"/><path class="cls-9" d="M78.77,66h0a.56.56,0,0,0,.17.07l.57.17.14,0a6.37,6.37,0,0,0-1.08,1,7.14,7.14,0,0,0-.78,1.16,11.41,11.41,0,0,0-.5,1.17,11.09,11.09,0,0,0-.51,2.53,9.6,9.6,0,0,0,0,2.6,7.91,7.91,0,0,0,.59,1.78A7.83,7.83,0,0,0,78.33,78a7.44,7.44,0,0,0,1.19,1.19,7,7,0,0,0,1.4.91,8.51,8.51,0,0,0,1.68.64,9.58,9.58,0,0,0,1.67.26h.43a9.7,9.7,0,0,0,1.42-.11,8.19,8.19,0,0,0,4.41-2.14,7.84,7.84,0,0,0,1.77-2.56,8.17,8.17,0,0,0,.68-3.1,9,9,0,0,0-.34-2.59A12.17,12.17,0,0,1,95.26,72a8.23,8.23,0,0,1,1.26,1.24,5.34,5.34,0,0,1,.64,1.09,4.72,4.72,0,0,1,.18.53.56.56,0,0,0,.11.2,4.61,4.61,0,0,1,0,1.17,5.22,5.22,0,0,1-.35,1.21,7.76,7.76,0,0,1-.92,1.53,12.62,12.62,0,0,1-1.88,1.83A15.62,15.62,0,0,1,91,82.68a11,11,0,0,1-1.87.6c-.64.15-1.31.27-2,.37a23.17,23.17,0,0,1-2.84.18A18.4,18.4,0,0,1,82,83.69a13.47,13.47,0,0,1-3.18-.82,9.86,9.86,0,0,1-2.06-1.19l.15.06a6.58,6.58,0,0,1-1.43-1.36,8.17,8.17,0,0,1-.94-1.63,8.9,8.9,0,0,1-.56-2.16l0,.12a11,11,0,0,1,0-2.93,13,13,0,0,1,.87-3.22,11.4,11.4,0,0,1,1.37-2.38,9.26,9.26,0,0,1,1.49-1.51,8.68,8.68,0,0,1,1.08-.7Z"/><path class="cls-5" d="M78.94,50.34a.4.4,0,0,1,.24.07.45.45,0,0,1,.2.23.67.67,0,0,1,.41.18,7.57,7.57,0,0,1,.73,1c.17.29.32.53.46.78l.26.44a22.5,22.5,0,0,0,1.5,2.25l-.1-.1a12.44,12.44,0,0,0,2,2,.33.33,0,0,1,.12.24.53.53,0,0,1-.12.35.52.52,0,0,1-.18.1.34.34,0,0,1-.1.28.43.43,0,0,1-.26.11,5.51,5.51,0,0,1-.81,0,7.73,7.73,0,0,1-1.62-.18,9.29,9.29,0,0,1-2.35-.92,12.47,12.47,0,0,1-2.13-1.48,10.21,10.21,0,0,1-.93-.87A5.49,5.49,0,0,1,75.5,54a.59.59,0,0,1-.08-.4.63.63,0,0,1-.19-.32.71.71,0,0,1,.07-.54,3.36,3.36,0,0,1,.61-.85,4.55,4.55,0,0,1,.89-.75,4.75,4.75,0,0,1,.88-.47,4.3,4.3,0,0,1,1.11-.31l.15,0Z"/><path class="cls-4" d="M74.8,46.68h0a.87.87,0,0,0-.59-.24.88.88,0,0,0-.42.11,3.67,3.67,0,0,0-.52.44,3.12,3.12,0,0,0-.43.53,4.19,4.19,0,0,0-.5,1,5.66,5.66,0,0,0-.28,2.31.67.67,0,0,0,.66.66.67.67,0,0,0,.66-.66,3.75,3.75,0,0,1,0-.67,4.21,4.21,0,0,1,.16-.61,5.5,5.5,0,0,1,.54-.9q.35-.41.72-.78a.85.85,0,0,0,0-1.18Zm-.75,2h0l-.08.1.08-.1Z"/><path class="cls-10" d="M62.13,89.15a12.4,12.4,0,0,0-4.5.93,6.36,6.36,0,0,0-1.63,1,3.63,3.63,0,0,0-1,1.43.48.48,0,0,0,.33.59.49.49,0,0,0,.58-.34v0l0,.07a.36.36,0,0,1,0-.09v0a2.69,2.69,0,0,1,.28-.46,2.92,2.92,0,0,1,.56-.55,5.19,5.19,0,0,1,1.13-.63l-.13.06a9.94,9.94,0,0,1,2.38-.62h.06a13.9,13.9,0,0,1,3.41,0l-.09,0a11.19,11.19,0,0,1,2.42.63,7.24,7.24,0,0,1,1.46.83,4.18,4.18,0,0,1,.6.59,3.35,3.35,0,0,1,.27.45.93.93,0,1,0,1.61-.94,5.34,5.34,0,0,0-3.17-2.36,12.28,12.28,0,0,0-2.26-.48,15.19,15.19,0,0,0-1.91-.12Zm3.85,2,.16.06L66,91.18ZM56,92.76v0Zm4.27-2.22h0Z"/></g></g></svg>